<svg aria-hidden="true" style="position: absolute; width: 0; height: 0; overflow: hidden;" version="1.1" xmlns="http://www.w3.org/2000/svg" xmlns:xlink="http://www.w3.org/1999/xlink">
<defs>
<symbol id="icon-cliente-6" viewBox="0 0 67 32">
<path d="M33.748 16.393c-0.151-0.194-0.241-0.441-0.241-0.71 0-0.027 0.001-0.053 0.003-0.079l-0 0.004v-1.139c0-0.349 0.079-0.614 0.238-0.796s0.43-0.272 0.816-0.271c0.362 0 0.62 0.077 0.772 0.232 0.166 0.197 0.247 0.438 0.228 0.681v0.268h-0.648v-0.271c0.002-0.088-0.004-0.177-0.019-0.265-0.011-0.064-0.045-0.119-0.092-0.157l-0.001-0c-0.058-0.039-0.13-0.063-0.207-0.063-0.010 0-0.019 0-0.029 0.001l0.001-0c-0.008-0.001-0.018-0.001-0.028-0.001-0.082 0-0.158 0.025-0.221 0.067l0.001-0.001c-0.054 0.043-0.092 0.103-0.107 0.172l-0 0.002c-0.016 0.078-0.026 0.168-0.026 0.26 0 0.008 0 0.015 0 0.023v-0.001 1.383c-0.010 0.133 0.019 0.267 0.083 0.388 0.034 0.042 0.077 0.074 0.127 0.093l0.002 0.001c0.053 0.021 0.111 0.028 0.167 0.022 0.008 0.001 0.018 0.001 0.027 0.001 0.076 0 0.146-0.024 0.203-0.064l-0.001 0.001c0.050-0.042 0.085-0.1 0.097-0.166l0-0.002c0.013-0.075 0.020-0.161 0.020-0.249 0-0.010-0-0.020-0-0.030l0 0.001v-0.28h0.648v0.256c0.001 0.020 0.002 0.044 0.002 0.068 0 0.246-0.085 0.472-0.228 0.651l0.002-0.002c-0.149 0.169-0.403 0.254-0.776 0.254s-0.655-0.090-0.815-0.278zM36.447 16.405c-0.164-0.178-0.246-0.436-0.246-0.777v-1.198c0-0.339 0.082-0.595 0.246-0.768s0.437-0.26 0.821-0.26c0.381 0 0.653 0.087 0.817 0.26 0.164 0.174 0.247 0.43 0.247 0.768v1.198c0 0.339-0.083 0.598-0.25 0.777s-0.437 0.267-0.815 0.267-0.656-0.090-0.822-0.266zM37.57 16.117c0.059-0.111 0.085-0.233 0.078-0.354v-1.467c0.001-0.012 0.001-0.026 0.001-0.040 0-0.113-0.029-0.219-0.079-0.312l0.002 0.003c-0.034-0.042-0.079-0.075-0.13-0.095l-0.002-0.001c-0.038-0.015-0.081-0.023-0.127-0.023-0.016 0-0.031 0.001-0.046 0.003l0.002-0c-0.013-0.002-0.028-0.003-0.044-0.003-0.046 0-0.090 0.008-0.13 0.024l0.002-0.001c-0.054 0.020-0.099 0.053-0.133 0.095l-0 0.001c-0.059 0.108-0.086 0.228-0.078 0.348v1.474c-0.008 0.122 0.019 0.244 0.078 0.355 0.038 0.037 0.084 0.067 0.137 0.088 0.049 0.020 0.107 0.031 0.167 0.031s0.117-0.012 0.17-0.033l-0.003 0.001c0.053-0.021 0.099-0.051 0.137-0.088l-0 0v-0.007zM39.113 13.436h0.698l0.525 2.211 0.537-2.21h0.679l0.069 3.191h-0.502l-0.054-2.217-0.518 2.217h-0.403l-0.537-2.226-0.050 2.226h-0.507l0.063-3.191zM42.402 13.436h1.087c0.626 0 0.939 0.302 0.939 0.906 0 0.578-0.33 0.868-0.989 0.867h-0.37v1.418h-0.671l0.004-3.191zM43.331 14.8c0.066 0.008 0.134 0.002 0.198-0.015s0.122-0.046 0.171-0.085c0.077-0.108 0.111-0.234 0.097-0.36 0-0.010 0.001-0.023 0.001-0.035 0-0.091-0.012-0.178-0.035-0.262l0.002 0.007c-0.010-0.034-0.027-0.063-0.050-0.088l0 0c-0.023-0.026-0.051-0.048-0.083-0.063l-0.002-0.001c-0.078-0.033-0.169-0.052-0.264-0.052-0.012 0-0.025 0-0.037 0.001l0.002-0h-0.26v0.954h0.26zM45.396 13.436h0.721l0.74 3.191h-0.626l-0.146-0.736h-0.643l-0.151 0.736h-0.634l0.739-3.191zM46.012 15.522l-0.251-1.339-0.251 1.339h0.502zM47.454 13.436h0.47l0.899 1.82v-1.82h0.557v3.191h-0.447l-0.905-1.9v1.9h-0.576l0.001-3.191zM50.684 15.411l-0.747-1.97h0.63l0.456 1.265 0.428-1.265h0.616l-0.738 1.97v1.217h-0.644v-1.217zM34.784 18.022v0.167h-0.548v1.297h-0.23v-1.297h-0.55v-0.167h1.327zM36.501 19.486h-0.177c-0.001 0-0.003 0-0.005 0-0.017 0-0.032-0.005-0.045-0.014l0 0c-0.013-0.008-0.023-0.020-0.029-0.033l-0-0-0.158-0.348h-0.76l-0.158 0.348c-0.005 0.016-0.014 0.029-0.024 0.039l-0 0c-0.013 0.009-0.029 0.014-0.046 0.014-0.001 0-0.003-0-0.004-0h-0.177l0.671-1.463h0.234l0.679 1.458zM35.39 18.942h0.633l-0.269-0.596c-0.017-0.037-0.034-0.083-0.047-0.13l-0.002-0.008c-0.009 0.028-0.017 0.055-0.025 0.078l-0.025 0.061-0.265 0.595zM37.658 19.342c0.042 0.002 0.084 0.002 0.126 0 0.036-0.004 0.072-0.009 0.107-0.018 0.033-0.007 0.065-0.016 0.097-0.026 0.030-0.011 0.059-0.023 0.090-0.036v-0.329h-0.268c-0.001 0-0.001 0-0.002 0-0.013 0-0.025-0.004-0.034-0.012l0 0c-0.004-0.003-0.008-0.007-0.010-0.012l-0-0c-0.002-0.004-0.003-0.008-0.003-0.013 0-0 0-0.001 0-0.001v0-0.113h0.521v0.561c-0.081 0.051-0.176 0.092-0.276 0.118l-0.007 0.002c-0.055 0.014-0.111 0.024-0.168 0.030s-0.125 0.009-0.192 0.009c-0.001 0-0.003 0-0.004 0h0c-0.002 0-0.005 0-0.008 0-0.118 0-0.232-0.020-0.337-0.057l0.007 0.002c-0.103-0.036-0.193-0.088-0.27-0.154l0.001 0.001c-0.072-0.064-0.13-0.141-0.171-0.228l-0.002-0.004c-0.039-0.087-0.062-0.188-0.062-0.294 0-0.003 0-0.007 0-0.010v0c-0-0.003-0-0.006-0-0.009 0-0.107 0.022-0.209 0.062-0.302l-0.002 0.005c0.038-0.087 0.098-0.166 0.173-0.232 0.077-0.066 0.168-0.117 0.269-0.152 0.115-0.038 0.237-0.056 0.359-0.055 0.062 0 0.125 0.004 0.186 0.013 0.055 0.008 0.108 0.020 0.16 0.037 0.047 0.015 0.092 0.035 0.134 0.058 0.041 0.023 0.080 0.048 0.117 0.076l-0.064 0.090c-0.005 0.008-0.013 0.015-0.021 0.020l-0 0c-0.009 0.005-0.020 0.008-0.031 0.008h-0c-0.015-0-0.030-0.005-0.042-0.012l0 0c-0.027-0.013-0.049-0.024-0.070-0.037l0.004 0.002c-0.025-0.014-0.055-0.027-0.086-0.038l-0.004-0.001c-0.034-0.012-0.076-0.024-0.118-0.032l-0.005-0.001c-0.048-0.008-0.104-0.013-0.161-0.013-0.003 0-0.006 0-0.009 0h0c-0.002-0-0.005-0-0.008-0-0.090 0-0.176 0.015-0.257 0.042l0.006-0.002c-0.075 0.026-0.142 0.065-0.198 0.116-0.053 0.050-0.095 0.11-0.123 0.178l-0.001 0.003c-0.028 0.072-0.045 0.156-0.045 0.244s0.017 0.172 0.047 0.249l-0.002-0.005c0.029 0.069 0.075 0.132 0.134 0.184 0.055 0.050 0.122 0.090 0.196 0.116 0.086 0.025 0.176 0.035 0.266 0.029zM39.797 19.319h0.733v0.167h-0.957v-1.464h0.23l-0.006 1.297zM41.292 19.486h-0.23v-1.464h0.23v1.464zM42.146 18.029c0.014 0.007 0.026 0.016 0.035 0.027l0 0 0.981 1.103c-0.001-0.008-0.001-0.017-0.001-0.026s0-0.018 0.001-0.027l-0 0.001v-1.090h0.2v1.47h-0.115c-0.002 0-0.005 0-0.007 0-0.015 0-0.030-0.003-0.043-0.009l0.001 0c-0.014-0.007-0.026-0.017-0.036-0.028l-0-0-0.98-1.102v1.138h-0.192v-1.464h0.119c0.013 0 0.026 0.003 0.038 0.007zM45.051 18.022v0.161h-0.813v0.483h0.659v0.155h-0.659v0.499h0.813v0.161h-1.049v-1.46h1.049zM21.002 8.985l10.191 2.498v8.754l-10.191-2.497v-8.756zM20.348 8.239v9.926l11.496 2.819v-9.925l-11.496-2.82z"></path>
<path d="M26.51 25.592l-11.498-2.822v-9.925l11.498 2.82v9.926z"></path>
<path d="M20.539 8.872l10.057 2.467-4.277 3.694-10.059-2.468 4.279-3.693zM20.348 8.239l-5.336 4.606 11.498 2.821 5.335-4.607-11.496-2.82zM27.157 25.033l4.688-4.049-4.688-1.15v5.199z"></path>
</symbol>
<symbol id="icon-cliente-5" viewBox="0 0 67 32">
<path d="M23.213 23.238c0.096 0.109 0.147 0.246 0.145 0.386 0 0.009 0.001 0.019 0.001 0.029 0 0.086-0.019 0.168-0.054 0.241l0.001-0.003c-0.042 0.088-0.1 0.162-0.172 0.22l-0.001 0.001c-0.164 0.113-0.366 0.18-0.584 0.18-0.024 0-0.048-0.001-0.071-0.002l0.003 0h-1.147v-2.445h1.124c0.020-0.001 0.043-0.002 0.066-0.002 0.207 0 0.399 0.061 0.56 0.167l-0.004-0.002c0.073 0.056 0.13 0.126 0.168 0.205s0.055 0.166 0.050 0.253c0.006 0.134-0.040 0.267-0.13 0.374-0.087 0.097-0.208 0.164-0.342 0.191 0.152 0.025 0.29 0.1 0.387 0.209zM21.867 22.869h0.48c0.109 0.007 0.217-0.022 0.305-0.081 0.035-0.029 0.063-0.065 0.081-0.107l0.001-0.002c0.014-0.032 0.022-0.068 0.022-0.107 0-0.008-0-0.016-0.001-0.024l0 0.001c0-0.006 0.001-0.013 0.001-0.021 0-0.040-0.008-0.077-0.023-0.111l0.001 0.002c-0.019-0.043-0.046-0.080-0.080-0.109l-0-0c-0.078-0.053-0.173-0.084-0.276-0.084-0.013 0-0.027 0.001-0.040 0.002l0.002-0h-0.473v0.642zM22.7 23.807c0.037-0.030 0.067-0.067 0.088-0.11l0.001-0.002c0.016-0.034 0.026-0.075 0.026-0.117 0-0.007-0-0.014-0.001-0.020l0 0.001c0-0.005 0.001-0.012 0.001-0.018 0-0.044-0.010-0.085-0.027-0.122l0.001 0.002c-0.022-0.045-0.052-0.083-0.089-0.112l-0.001-0c-0.083-0.056-0.185-0.089-0.294-0.089-0.011 0-0.023 0-0.034 0.001l0.002-0h-0.504v0.673h0.51c0.115 0.006 0.228-0.024 0.322-0.085zM25.509 24.29l-0.625-0.956h-0.235v0.956h-0.538v-2.446h1.018c0.022-0.002 0.047-0.002 0.072-0.002 0.24 0 0.461 0.079 0.639 0.213l-0.003-0.002c0.142 0.133 0.228 0.307 0.242 0.493 0.001 0.015 0.002 0.033 0.002 0.051 0 0.178-0.064 0.342-0.169 0.469l0.001-0.001c-0.126 0.13-0.294 0.22-0.481 0.248l-0.005 0.001 0.666 0.977h-0.585zM24.649 23h0.44c0.305 0 0.458-0.123 0.458-0.37 0-0.006 0.001-0.013 0.001-0.020 0-0.046-0.009-0.090-0.026-0.131l0.001 0.002c-0.021-0.050-0.050-0.092-0.087-0.126l-0-0c-0.084-0.063-0.189-0.101-0.303-0.101-0.015 0-0.030 0.001-0.045 0.002l0.002-0h-0.445l0.005 0.744zM28.448 23.798h-1.071l-0.189 0.492h-0.564l0.984-2.419h0.61l0.98 2.419h-0.563l-0.185-0.492zM28.305 23.427l-0.392-1.032-0.392 1.032h0.783zM32.127 24.29h-0.533l-1.197-1.663v1.663h-0.533v-2.446h0.533l1.197 1.673v-1.673h0.533v2.446zM35.174 23.704c-0.111 0.184-0.279 0.335-0.483 0.431-0.207 0.098-0.451 0.155-0.707 0.155-0.015 0-0.031-0-0.046-0.001l0.002 0h-0.95v-2.446h0.95c0.013-0 0.028-0.001 0.044-0.001 0.256 0 0.499 0.056 0.718 0.155l-0.011-0.004c0.204 0.095 0.373 0.243 0.483 0.427 0.11 0.199 0.167 0.419 0.167 0.642s-0.057 0.442-0.167 0.642zM34.563 23.646c0.145-0.152 0.234-0.357 0.236-0.584v-0c0-0.214-0.084-0.421-0.236-0.584-0.165-0.131-0.377-0.21-0.607-0.21-0.022 0-0.043 0.001-0.064 0.002l0.003-0h-0.371v1.583h0.371c0.018 0.001 0.040 0.002 0.061 0.002 0.23 0 0.442-0.079 0.609-0.211l-0.002 0.002zM28.783 8.239s6.889 2.381 6.743 5.827v5.83s-6.884-2.383-6.741-5.829l-0.002-5.828zM41.663 18.53c1.301-0.82 2.806-1.327 4.377-1.477v-1.824c-1.81 0.639-3.346 1.797-4.377 3.302z"></path>
<path d="M40.882 19.080c1.065-1.963 2.911-3.479 5.159-4.233v-5.257s-9.811 3.392-9.604 8.299v8.299s0.437-0.152 1.125-0.436c0-0.265 0-0.533 0.032-0.802 0.203-2.278 1.385-4.389 3.288-5.869z"></path>
<path d="M39.949 22.163c0.051-0.576 0.166-1.145 0.343-1.699-1.185 1.278-1.903 2.864-2.052 4.535-0.015 0.158-0.023 0.315-0.026 0.478 0.818-0.358 1.438-0.663 2.045-0.988l-0.158 0.077c-0.174-0.791-0.225-1.6-0.153-2.403zM40.339 22.193c-0.019 0.201-0.030 0.436-0.030 0.672 0 0.532 0.055 1.052 0.16 1.553l-0.009-0.049c2.681-1.469 5.692-3.738 5.576-6.48v-0.239c-1.915 0.196-3.707 0.963-5.1 2.182-0.307 0.691-0.52 1.491-0.596 2.332l-0.002 0.029z"></path>
</symbol>
<symbol id="icon-cliente-4" viewBox="0 0 67 32">
<path  d="M22.181 13.902h-0.001c-0.947 0-1.715 0.682-1.715 1.524v0.001c0 0.842 0.768 1.525 1.715 1.525h0.001c0.947 0 1.715-0.683 1.715-1.525v-0.001c0-0.841-0.768-1.524-1.715-1.524zM34.842 13.415c-0.003-1.169-0.527-2.29-1.457-3.117s-2.191-1.293-3.507-1.295c-1.316 0.002-2.578 0.468-3.509 1.295s-1.455 1.948-1.458 3.118v6.449s9.929-0.983 9.931-6.447v-0.001zM16.988 21.98c0.002 0.814 0.367 1.594 1.015 2.169s1.525 0.9 2.44 0.902c0.915-0.002 1.792-0.327 2.44-0.902s1.012-1.355 1.015-2.168v-4.487s-6.909 0.685-6.909 4.486zM20.442 22.784c-0.179 0-0.354-0.047-0.503-0.136-0.145-0.085-0.259-0.208-0.331-0.356l-0.002-0.005c-0.043-0.090-0.069-0.196-0.069-0.307 0-0.056 0.006-0.11 0.018-0.162l-0.001 0.005c0.035-0.156 0.121-0.299 0.247-0.412s0.288-0.189 0.463-0.22c0.053-0.010 0.114-0.016 0.177-0.016 0.124 0 0.243 0.022 0.353 0.063l-0.007-0.002c0.165 0.061 0.307 0.164 0.406 0.296s0.152 0.288 0.152 0.446c0 0.001 0 0.001 0 0.002 0 0.111-0.025 0.217-0.070 0.311l0.002-0.004c-0.049 0.103-0.115 0.19-0.195 0.261l-0.001 0.001c-0.084 0.075-0.184 0.134-0.294 0.175-0.103 0.039-0.221 0.061-0.345 0.061-0.001 0-0.001 0-0.002 0h0v-0.003zM26.758 21.344v1.685h-0.347v-1.685h0.348zM27.429 22.065v0.271h-0.766v-0.271h0.766zM27.51 21.344v0.272h-0.847v-0.272h0.847zM29.096 22.148v0.080c0 0.128-0.017 0.243-0.052 0.345-0.033 0.1-0.084 0.187-0.148 0.261l0.001-0.001c-0.063 0.071-0.139 0.125-0.227 0.163-0.083 0.036-0.179 0.057-0.28 0.057-0.004 0-0.007-0-0.011-0h0.001c-0.106 0-0.203-0.019-0.291-0.056-0.089-0.039-0.165-0.094-0.226-0.163l-0.001-0.001c-0.064-0.073-0.115-0.16-0.148-0.255l-0.002-0.005c-0.033-0.098-0.052-0.212-0.052-0.329 0-0.005 0-0.011 0-0.016v0.001-0.080c0-0.129 0.017-0.244 0.052-0.345s0.084-0.188 0.147-0.26c0.064-0.072 0.14-0.126 0.227-0.164 0.088-0.038 0.185-0.056 0.291-0.056s0.203 0.019 0.29 0.056c0.088 0.038 0.164 0.093 0.227 0.164s0.113 0.159 0.148 0.261c0.036 0.101 0.053 0.216 0.053 0.345zM28.745 22.228v-0.082c0-0.090-0.008-0.168-0.024-0.236-0.014-0.065-0.039-0.122-0.073-0.173l0.001 0.002c-0.029-0.044-0.068-0.079-0.114-0.103l-0.002-0.001c-0.044-0.023-0.095-0.036-0.15-0.036-0.002 0-0.004 0-0.006 0h0c-0.059 0-0.111 0.012-0.156 0.036-0.047 0.025-0.085 0.061-0.114 0.103l-0.001 0.001c-0.032 0.049-0.056 0.107-0.070 0.168l-0.001 0.004c-0.016 0.067-0.025 0.144-0.025 0.223 0 0.005 0 0.009 0 0.014v-0.001 0.082c0 0.088 0.008 0.167 0.024 0.236s0.040 0.126 0.072 0.173c0.032 0.046 0.070 0.081 0.116 0.105s0.098 0.036 0.156 0.036c0.058 0 0.111-0.012 0.156-0.036 0.047-0.026 0.086-0.061 0.114-0.104l0.001-0.001c0.031-0.047 0.055-0.105 0.071-0.173s0.024-0.147 0.024-0.236zM30.223 22.589c0-0.001 0-0.002 0-0.004 0-0.028-0.005-0.054-0.014-0.079l0 0.002c-0.010-0.027-0.027-0.050-0.049-0.067l-0-0c-0.029-0.024-0.062-0.044-0.098-0.060l-0.003-0.001c-0.045-0.021-0.101-0.042-0.158-0.060l-0.010-0.003c-0.089-0.028-0.161-0.057-0.231-0.088l0.013 0.005c-0.069-0.031-0.128-0.067-0.183-0.109l0.002 0.002c-0.050-0.040-0.090-0.088-0.121-0.142l-0.001-0.002c-0.028-0.053-0.044-0.116-0.044-0.183 0-0.003 0-0.006 0-0.009v0c0-0.070 0.016-0.134 0.046-0.191 0.031-0.058 0.074-0.107 0.13-0.148 0.056-0.042 0.121-0.074 0.197-0.096 0.077-0.023 0.16-0.034 0.251-0.034 0.124 0 0.233 0.022 0.325 0.067s0.164 0.106 0.215 0.184c0.052 0.078 0.078 0.167 0.078 0.267h-0.345c0-0.002 0-0.003 0-0.005 0-0.046-0.012-0.088-0.032-0.126l0.001 0.001c-0.021-0.039-0.053-0.069-0.091-0.089l-0.001-0.001c-0.042-0.020-0.091-0.032-0.142-0.032-0.004 0-0.009 0-0.013 0l0.001-0c-0.004-0-0.008-0-0.012-0-0.050 0-0.098 0.010-0.141 0.029l0.002-0.001c-0.037 0.015-0.068 0.040-0.090 0.072l-0 0.001c-0.019 0.028-0.030 0.062-0.030 0.099 0 0.001 0 0.002 0 0.003v-0c0 0.028 0.007 0.055 0.021 0.078 0.017 0.026 0.039 0.047 0.064 0.064l0.001 0.001c0.028 0.020 0.063 0.040 0.105 0.057s0.090 0.035 0.145 0.052c0.092 0.028 0.172 0.059 0.242 0.094 0.067 0.032 0.125 0.072 0.177 0.118l-0.001-0.001c0.047 0.043 0.083 0.092 0.107 0.147s0.036 0.117 0.036 0.186c0 0.005 0 0.011 0 0.016 0 0.134-0.065 0.253-0.166 0.327l-0.001 0.001c-0.054 0.040-0.119 0.071-0.193 0.091s-0.158 0.032-0.251 0.032c-0.088-0-0.173-0.012-0.253-0.034l0.007 0.002c-0.084-0.023-0.158-0.057-0.224-0.102l0.003 0.002c-0.065-0.045-0.118-0.102-0.156-0.169l-0.001-0.003c-0.040-0.070-0.059-0.152-0.059-0.247h0.348c0 0.053 0.008 0.097 0.024 0.133 0.015 0.035 0.039 0.065 0.067 0.088l0 0c0.030 0.022 0.066 0.039 0.105 0.048l0.002 0c0.041 0.010 0.087 0.015 0.137 0.015 0.004 0 0.008 0 0.012 0 0.049 0 0.096-0.009 0.139-0.027l-0.003 0.001c0.068-0.028 0.116-0.093 0.116-0.17 0-0.001 0-0.001 0-0.002v0zM31.559 21.344v1.685h-0.346v-1.685h0.346zM32.078 21.344v0.272h-1.375v-0.272h1.375zM33.407 22.759v0.271h-0.897v-0.271h0.897zM32.623 21.344v1.685h-0.348v-1.685h0.348zM33.29 22.031v0.264h-0.78v-0.264h0.78zM33.406 21.344v0.272h-0.896v-0.272h0.896zM33.609 21.344h0.628c0.129 0 0.24 0.020 0.333 0.058s0.165 0.096 0.215 0.171c0.050 0.076 0.075 0.169 0.075 0.279 0 0.090-0.015 0.168-0.046 0.232s-0.074 0.118-0.127 0.16l-0.001 0.001c-0.055 0.042-0.12 0.077-0.189 0.101l-0.005 0.001-0.11 0.058h-0.546l-0.002-0.271h0.407c0.003 0 0.007 0 0.011 0 0.051 0 0.099-0.012 0.142-0.033l-0.002 0.001c0.039-0.020 0.070-0.051 0.090-0.089l0.001-0.001c0.020-0.037 0.031-0.081 0.031-0.128 0-0.002-0-0.004-0-0.006v0c0-0.002 0-0.005 0-0.008 0-0.048-0.011-0.093-0.031-0.134l0.001 0.002c-0.020-0.039-0.052-0.070-0.090-0.090l-0.001-0.001c-0.042-0.020-0.091-0.032-0.143-0.032-0.004 0-0.008 0-0.012 0h-0.28v1.414h-0.348v-1.685zM34.552 23.030l-0.384-0.751 0.367-0.002 0.389 0.737v0.016h-0.371zM36.375 22.429h-0.429v-0.271h0.429c0.004 0 0.009 0 0.014 0 0.054 0 0.105-0.012 0.15-0.034l-0.002 0.001c0.040-0.021 0.071-0.052 0.091-0.091l0.001-0.001c0.018-0.040 0.029-0.087 0.029-0.137s-0.011-0.096-0.030-0.139l0.001 0.002c-0.020-0.044-0.051-0.080-0.090-0.104l-0.001-0.001c-0.043-0.025-0.094-0.040-0.149-0.040-0.005 0-0.009 0-0.014 0l0.001-0h-0.309v1.414h-0.348v-1.685h0.657c0.132 0 0.245 0.024 0.339 0.072s0.167 0.112 0.218 0.196 0.075 0.179 0.075 0.286c0 0.109-0.025 0.203-0.075 0.282s-0.122 0.141-0.217 0.184c-0.094 0.043-0.207 0.065-0.34 0.065zM38.377 22.759v0.271h-0.897v-0.271h0.897zM37.593 21.344v1.685h-0.347v-1.685h0.347zM38.26 22.031v0.264h-0.78v-0.264h0.78zM38.376 21.344v0.272h-0.896v-0.272h0.896zM39.356 21.344v1.685h-0.346v-1.685h0.346zM39.874 21.344v0.272h-1.375v-0.272h1.375zM41.203 22.759v0.271h-0.897v-0.271h0.897zM40.42 21.344v1.685h-0.347v-1.685h0.347zM41.086 22.031v0.264h-0.78v-0.264h0.78zM41.202 21.344v0.272h-0.896v-0.272h0.896zM41.406 21.344h0.629c0.129 0 0.24 0.020 0.332 0.058s0.165 0.096 0.215 0.171c0.050 0.076 0.075 0.169 0.075 0.279 0 0.090-0.015 0.168-0.046 0.232s-0.074 0.118-0.127 0.16l-0.001 0.001c-0.055 0.042-0.119 0.077-0.188 0.101l-0.005 0.001-0.11 0.058h-0.546l-0.002-0.271h0.406c0.003 0 0.007 0 0.011 0 0.051 0 0.099-0.012 0.142-0.033l-0.002 0.001c0.039-0.021 0.070-0.051 0.090-0.089l0.001-0.001c0.020-0.037 0.031-0.081 0.031-0.128 0-0.002-0-0.004-0-0.007v0c0-0.002 0-0.005 0-0.008 0-0.048-0.011-0.093-0.031-0.134l0.001 0.002c-0.020-0.039-0.052-0.070-0.090-0.090l-0.001-0.001c-0.042-0.020-0.091-0.032-0.143-0.032-0.004 0-0.008 0-0.011 0h-0.281v1.414h-0.347v-1.685zM42.348 23.030l-0.384-0.751 0.367-0.002 0.389 0.737v0.016h-0.371zM43.802 22.589c0-0.001 0-0.002 0-0.003 0-0.028-0.005-0.055-0.014-0.080l0.001 0.002c-0.010-0.027-0.027-0.050-0.048-0.067l-0-0c-0.029-0.024-0.062-0.044-0.098-0.060l-0.003-0.001c-0.045-0.021-0.101-0.042-0.158-0.060l-0.010-0.003c-0.089-0.028-0.161-0.056-0.231-0.088l0.013 0.005c-0.069-0.031-0.128-0.067-0.183-0.109l0.002 0.002c-0.050-0.040-0.091-0.088-0.122-0.142l-0.001-0.002c-0.028-0.053-0.044-0.116-0.044-0.182 0-0.003 0-0.006 0-0.010v0c-0-0.002-0-0.003-0-0.005 0-0.068 0.017-0.132 0.047-0.188l-0.001 0.002c0.031-0.058 0.074-0.107 0.13-0.148s0.122-0.074 0.193-0.095l0.004-0.001c0.076-0.023 0.16-0.034 0.251-0.034 0.124 0 0.233 0.022 0.326 0.067s0.164 0.106 0.215 0.184c0.052 0.078 0.078 0.167 0.078 0.267h-0.345c0-0.002 0-0.003 0-0.005 0-0.046-0.012-0.088-0.032-0.126l0.001 0.001c-0.021-0.039-0.053-0.069-0.092-0.089l-0.001-0.001c-0.042-0.020-0.090-0.032-0.142-0.032-0.005 0-0.009 0-0.014 0l0.001-0c-0.004-0-0.008-0-0.012-0-0.050 0-0.098 0.010-0.141 0.029l0.002-0.001c-0.037 0.015-0.068 0.040-0.090 0.072l-0 0.001c-0.019 0.028-0.030 0.062-0.030 0.099 0 0.001 0 0.002 0 0.003v-0c0 0.028 0.007 0.055 0.021 0.078 0.017 0.026 0.039 0.047 0.064 0.064l0.001 0.001c0.028 0.020 0.064 0.040 0.105 0.057s0.090 0.035 0.145 0.052c0.092 0.028 0.172 0.059 0.242 0.094s0.129 0.074 0.176 0.117c0.047 0.043 0.083 0.092 0.107 0.147s0.036 0.117 0.036 0.186c0 0.073-0.014 0.139-0.043 0.197s-0.070 0.107-0.124 0.147c-0.054 0.040-0.119 0.071-0.193 0.091s-0.159 0.032-0.251 0.032c-0.088-0-0.173-0.012-0.253-0.034l0.007 0.002c-0.084-0.023-0.158-0.057-0.224-0.102l0.003 0.002c-0.065-0.044-0.118-0.102-0.156-0.169l-0.001-0.003c-0.039-0.070-0.059-0.152-0.059-0.247h0.348c0 0.053 0.008 0.097 0.025 0.133s0.039 0.065 0.068 0.088l0.001 0c0.030 0.022 0.066 0.039 0.104 0.048l0.002 0c0.042 0.010 0.087 0.015 0.137 0.015 0.004 0 0.008 0 0.012 0 0.049 0 0.096-0.009 0.139-0.027l-0.002 0.001c0.068-0.027 0.116-0.093 0.116-0.169 0-0.001 0-0.002-0-0.003v0z"></path>
</symbol>
<symbol id="icon-cliente-3" viewBox="0 0 67 32">
<path d="M27.025 24.963c0.013 0 0.025 0.005 0.034 0.013l-0-0 0.086 0.082c-0.067 0.067-0.15 0.12-0.243 0.156-0.109 0.040-0.226 0.059-0.344 0.056-0.111 0.002-0.22-0.016-0.323-0.053-0.094-0.034-0.175-0.085-0.244-0.148l0 0c-0.066-0.063-0.12-0.139-0.156-0.224l-0.002-0.004c-0.035-0.084-0.055-0.182-0.055-0.285 0-0.003 0-0.006 0-0.009v0c-0-0.004-0-0.010-0-0.015 0-0.201 0.087-0.382 0.226-0.507l0.001-0.001c0.073-0.064 0.162-0.115 0.258-0.149 0.106-0.036 0.219-0.054 0.333-0.053 0.006-0 0.013-0 0.021-0 0.103 0 0.202 0.017 0.295 0.050l-0.006-0.002c0.085 0.032 0.164 0.077 0.232 0.132l-0.072 0.088c-0.005 0.006-0.011 0.012-0.018 0.016l-0 0c-0.007 0.004-0.016 0.007-0.025 0.007-0.001 0-0.003-0-0.004-0h0c-0.012-0-0.023-0.004-0.032-0.009l0 0-0.038-0.024-0.054-0.030c-0.049-0.024-0.106-0.042-0.166-0.052l-0.003-0c-0.036-0.006-0.077-0.010-0.119-0.010-0.003 0-0.006 0-0.010 0h0c-0.002-0-0.005-0-0.008-0-0.083 0-0.162 0.015-0.236 0.041l0.005-0.002c-0.071 0.025-0.135 0.062-0.187 0.111-0.054 0.051-0.095 0.111-0.122 0.176s-0.044 0.143-0.044 0.224c0 0.003 0 0.006 0 0.009v-0c-0.002 0.080 0.013 0.16 0.044 0.236 0.029 0.068 0.069 0.127 0.12 0.175l0 0c0.049 0.047 0.111 0.085 0.179 0.109 0.070 0.025 0.146 0.038 0.222 0.038 0.044 0 0.088-0.002 0.132-0.008 0.11-0.011 0.207-0.055 0.285-0.122l-0.001 0.001c0.011-0.009 0.025-0.015 0.041-0.015h0zM29.513 24.549c0.002 0.1-0.018 0.198-0.058 0.292-0.038 0.089-0.093 0.165-0.161 0.225l-0.001 0.001c-0.072 0.064-0.156 0.114-0.25 0.147l-0.005 0.002c-0.098 0.033-0.21 0.052-0.328 0.052s-0.23-0.019-0.335-0.055l0.007 0.002c-0.098-0.035-0.182-0.085-0.254-0.149l0.001 0.001c-0.069-0.062-0.124-0.139-0.162-0.224l-0.002-0.004c-0.037-0.086-0.058-0.186-0.058-0.292s0.021-0.205 0.060-0.297l-0.002 0.005c0.037-0.085 0.092-0.163 0.164-0.229 0.072-0.063 0.158-0.111 0.253-0.143 0.098-0.034 0.21-0.053 0.328-0.053s0.23 0.020 0.335 0.056l-0.007-0.002c0.096 0.034 0.182 0.085 0.254 0.149 0.071 0.065 0.126 0.142 0.162 0.226 0.040 0.094 0.060 0.193 0.058 0.293zM29.287 24.549c0-0.003 0-0.008 0-0.012 0-0.080-0.015-0.156-0.043-0.226l0.001 0.004c-0.052-0.135-0.16-0.239-0.294-0.285l-0.003-0.001c-0.071-0.024-0.153-0.038-0.238-0.038s-0.167 0.014-0.243 0.040l0.005-0.002c-0.071 0.025-0.131 0.063-0.182 0.111l0-0c-0.050 0.048-0.090 0.106-0.115 0.172l-0.001 0.003c-0.026 0.070-0.041 0.15-0.041 0.234s0.015 0.164 0.043 0.239l-0.002-0.005c0.052 0.135 0.16 0.238 0.295 0.283l0.003 0.001c0.153 0.050 0.322 0.050 0.476 0 0.069-0.024 0.132-0.062 0.182-0.109 0.052-0.051 0.091-0.111 0.115-0.175 0.029-0.075 0.043-0.154 0.041-0.234zM31.21 24.795l0.023 0.052c0.008-0.019 0.016-0.036 0.024-0.052 0.008-0.018 0.018-0.035 0.028-0.051l0.55-0.87c0.011-0.015 0.021-0.024 0.032-0.027s0.024-0.005 0.038-0.005c0.003 0 0.005 0 0.008 0h0.162v1.414h-0.193v-1.084c-0-0.007-0.001-0.016-0.001-0.024s0-0.017 0.001-0.026l-0 0.001-0.554 0.882c-0.008 0.014-0.019 0.025-0.032 0.032l-0 0c-0.013 0.007-0.029 0.012-0.046 0.012-0 0-0.001 0-0.001 0h-0.031c-0 0-0.001 0-0.001 0-0.017 0-0.033-0.004-0.047-0.012l0 0c-0.014-0.007-0.025-0.018-0.032-0.032l-0-0-0.57-0.887v1.135h-0.186v-1.411h0.162c0.002-0 0.005-0 0.007-0 0.014 0 0.027 0.002 0.039 0.005l-0.001-0c0.013 0.006 0.024 0.015 0.030 0.027l0.562 0.87c0.011 0.016 0.021 0.033 0.028 0.051zM33.282 24.725v0.529h-0.215v-1.412h0.48c0.091-0.002 0.181 0.009 0.268 0.031 0.070 0.017 0.134 0.047 0.19 0.088 0.046 0.036 0.082 0.083 0.107 0.136l0.001 0.002c0.026 0.058 0.038 0.119 0.037 0.181 0 0.003 0 0.006 0 0.009 0 0.128-0.061 0.241-0.155 0.312l-0.001 0.001c-0.055 0.042-0.12 0.074-0.191 0.094-0.072 0.021-0.156 0.033-0.242 0.033-0.006 0-0.013-0-0.019-0h0.001l-0.261-0.004zM33.282 24.573h0.261c0.057 0.001 0.113-0.007 0.167-0.021 0.046-0.014 0.086-0.034 0.121-0.061l-0.001 0.001c0.061-0.050 0.099-0.125 0.099-0.209 0-0.001 0-0.002-0-0.003v0c0-0.005 0.001-0.010 0.001-0.015 0-0.036-0.008-0.070-0.022-0.101l0.001 0.001c-0.018-0.038-0.043-0.071-0.075-0.096l-0.001-0c-0.072-0.048-0.161-0.077-0.256-0.077-0.012 0-0.024 0-0.036 0.001l0.002-0h-0.261v0.582zM36.177 25.256h-0.17c-0.001 0-0.002 0-0.003 0-0.017 0-0.032-0.005-0.045-0.014l0 0c-0.012-0.008-0.022-0.019-0.028-0.032l-0-0-0.146-0.341h-0.736l-0.152 0.341c-0.013 0.027-0.041 0.046-0.073 0.046-0.001 0-0.002 0-0.002-0h-0.171l0.646-1.414h0.224l0.655 1.414zM35.11 24.731h0.608l-0.257-0.575c-0.019-0.043-0.036-0.088-0.048-0.133l-0.025 0.074c-0.008 0.023-0.016 0.043-0.024 0.060l-0.254 0.574zM37.108 23.849c0.013 0.006 0.024 0.015 0.032 0.025l0.942 1.066v-1.098h0.193v1.414h-0.107c-0.001 0-0.002 0-0.002 0-0.015 0-0.029-0.003-0.042-0.009l0.001 0c-0.013-0.007-0.025-0.016-0.034-0.026l-0-0-0.941-1.065c0.001 0.007 0.001 0.016 0.001 0.024s-0 0.017-0.001 0.025l0-0.001v1.051h-0.193v-1.414h0.114c0 0 0.001 0 0.001 0 0.014 0 0.026 0.003 0.038 0.007l-0.001-0zM39.863 24.694v0.561h-0.215v-0.561l-0.596-0.852h0.193c0.001-0 0.003-0 0.005-0 0.015 0 0.030 0.004 0.042 0.012l-0-0c0.012 0.009 0.022 0.020 0.029 0.032l0.373 0.55c0.015 0.024 0.028 0.045 0.039 0.066s0.020 0.040 0.027 0.060l0.028-0.060c0.012-0.025 0.024-0.046 0.037-0.066l-0.001 0.002 0.367-0.553c0.008-0.012 0.017-0.021 0.028-0.030l0-0c0.012-0.009 0.027-0.014 0.043-0.014 0.001 0 0.003 0 0.004 0h0.195l-0.597 0.855zM31.104 21.469c0.094 0.010 0.189 0.019 0.284 0.026 1.454-0.565 2.683-1.489 3.535-2.658s1.288-2.53 1.255-3.913l-1.602-1.391c0.326 1.472 0.173 2.995-0.44 4.396s-1.663 2.627-3.033 3.54z"></path>
<path d="M30.532 21.404l0.043 0.007c1.463-0.909 2.579-2.179 3.202-3.645s0.727-3.061 0.296-4.579l-2.281-1.982c0.922 1.629 1.294 3.453 1.071 5.258s-1.031 3.518-2.331 4.94zM38.269 16.559c-0.388 1.519-1.329 2.89-2.684 3.908-0.37 0.282-0.788 0.546-1.228 0.773l-0.048 0.022c1.104-0.282 2.118-0.78 2.965-1.456s1.504-1.513 1.92-2.444l-0.925-0.803z"></path>
<path d="M37.906 16.335l-1.318-1.145c-0.025 1.305-0.452 2.58-1.237 3.693s-1.898 2.023-3.224 2.636h0.006c0.295 0 0.591-0.016 0.884-0.046 1.24-0.44 2.334-1.139 3.187-2.036s1.436-1.963 1.7-3.103zM30.722 10.37l-1.572-1.367c-1.405 0.472-2.613 1.301-3.467 2.379s-1.312 2.355-1.317 3.664c0.005 1.446 0.565 2.849 1.592 3.987s2.46 1.946 4.075 2.297c1.441-1.526 2.285-3.411 2.409-5.382s-0.479-3.925-1.721-5.578zM41.537 16.124c-0.006-1.715-0.792-3.359-2.189-4.572s-3.288-1.897-5.263-1.901c-0.913-0.001-1.817 0.145-2.668 0.431l9.622 8.359c0.314-0.681 0.497-1.477 0.498-2.317v-0z"></path>
</symbol>
<symbol id="icon-cliente-2" viewBox="0 0 67 32">
<path d="M32.44 7.91h-0.054c-0.069-0.004-0.156-0.007-0.243-0.009l-0.006-0h-0.18c-0.157 0-0.317 0.004-0.476 0.012-0.005-0-0.012-0.001-0.018-0.001s-0.013 0-0.019 0.001l0.001-0c-1.525 0.089-2.941 0.47-4.221 1.089l0.067-0.029-0.171 0.082v8.747l0.4-0.136c0.351-0.12 0.725-0.229 1.111-0.329 0.956-0.256 2.055-0.41 3.189-0.425l0.009-0v1.149c-0.143 0.001-0.282 0.005-0.421 0.012h-0.033c-0.898 0.050-1.739 0.185-2.549 0.398l0.089-0.020c-1.113 0.283-2.089 0.674-2.996 1.175l0.064-0.033v-11.219c0.885-0.526 1.91-0.955 2.994-1.233l0.081-0.018c0.869-0.234 1.867-0.37 2.896-0.374h0.171c0.202 0.005 0.399 0.014 0.584 0.028 0.487 0.034 0.97 0.111 1.444 0.23v1.131c-0.412-0.101-0.9-0.177-1.4-0.212l-0.028-0.002c-0.098-0.008-0.195-0.017-0.286-0.017zM34.431 9.066c0.251 0.019 0.51 0.028 0.774 0.028 1.084-0.004 2.134-0.147 3.134-0.411l-0.087 0.019c1.113-0.284 2.088-0.675 2.995-1.176l-0.065 0.033v11.018c-0.886 0.526-1.91 0.955-2.994 1.233l-0.082 0.018c-0.869 0.233-1.867 0.369-2.896 0.373h-0.003c-0.021 0-0.045 0-0.070 0-0.756 0-1.49-0.095-2.19-0.273l0.061 0.013v-11.089c0.17 0.039 0.345 0.075 0.523 0.105 0.292 0.049 0.6 0.085 0.9 0.107zM40.038 9.151l-0.4 0.135c-0.367 0.124-0.739 0.234-1.111 0.333-0.995 0.266-2.139 0.422-3.318 0.426h-0.003c-0.261 0-0.501-0.007-0.732-0.022l-0.319-0.021v8.998l0.274 0.024c0.254 0.023 0.516 0.034 0.779 0.034 0.931-0.004 1.832-0.127 2.689-0.355l-0.074 0.017c0.784-0.199 1.464-0.451 2.109-0.763l-0.065 0.029 0.171-0.082v-8.75z"></path>
<path d="M26.76 23.427c-0.107-0.111-0.258-0.18-0.424-0.18-0.007 0-0.014 0-0.021 0l0.001-0c-0.003-0-0.006-0-0.009-0-0.089 0-0.175 0.018-0.253 0.050l0.004-0.002c-0.152 0.061-0.27 0.18-0.327 0.329l-0.001 0.004c-0.032 0.079-0.047 0.163-0.046 0.248v1.499c-0 0.007-0 0.016-0 0.024 0 0.103 0.022 0.2 0.061 0.288l-0.002-0.005c0.036 0.077 0.087 0.145 0.15 0.201 0.060 0.050 0.13 0.087 0.205 0.107 0.073 0.020 0.149 0.031 0.224 0.031 0.083 0.001 0.166-0.017 0.242-0.052 0.225-0.1 0.379-0.321 0.379-0.579v-0.168h-0.392v0.134c0 0.003 0 0.006 0 0.009 0 0.045-0.008 0.087-0.024 0.127l0.001-0.002c-0.013 0.033-0.033 0.061-0.057 0.084l-0 0c-0.045 0.035-0.102 0.056-0.164 0.057h-0c-0.007 0.001-0.015 0.001-0.023 0.001-0.066 0-0.124-0.032-0.161-0.081l-0-0.001c-0.033-0.053-0.052-0.117-0.052-0.186 0-0.005 0-0.011 0-0.016l-0 0.001v-1.398c-0.002-0.077 0.014-0.154 0.048-0.224 0.036-0.056 0.098-0.092 0.168-0.092 0.008 0 0.016 0 0.024 0.001l-0.001-0c0.002-0 0.005-0 0.007-0 0.069 0 0.129 0.033 0.167 0.084l0 0.001c0.041 0.053 0.065 0.12 0.065 0.193 0 0.003-0 0.006-0 0.009v-0 0.13h0.388v-0.153c0-0.002 0-0.004 0-0.007 0-0.092-0.018-0.18-0.049-0.26l0.002 0.005c-0.031-0.082-0.075-0.152-0.131-0.211l0 0zM29.088 23.41c-0.119-0.102-0.275-0.164-0.445-0.165h-0c-0.080 0-0.159 0.015-0.234 0.042-0.162 0.058-0.289 0.177-0.357 0.329l-0.002 0.004c-0.040 0.091-0.059 0.19-0.057 0.29v1.437c-0.002 0.101 0.017 0.201 0.057 0.294 0.036 0.077 0.087 0.146 0.152 0.201 0.060 0.055 0.13 0.098 0.207 0.126 0.069 0.026 0.15 0.042 0.233 0.042 0.171 0 0.328-0.064 0.447-0.169l-0.001 0.001c0.062-0.056 0.113-0.125 0.148-0.201 0.040-0.092 0.060-0.193 0.057-0.294v-1.438c0-0.004 0-0.009 0-0.013 0-0.1-0.021-0.195-0.059-0.281l0.002 0.005c-0.037-0.082-0.086-0.152-0.147-0.21l-0-0zM28.905 25.348c0.001 0.007 0.001 0.014 0.001 0.022 0 0.073-0.030 0.139-0.079 0.186l-0 0c-0.049 0.042-0.114 0.067-0.184 0.067s-0.135-0.025-0.185-0.068l0 0c-0.049-0.047-0.079-0.112-0.079-0.185 0-0.008 0-0.016 0.001-0.024l-0 0.001v-1.438c-0.001-0.007-0.001-0.014-0.001-0.022 0-0.073 0.030-0.139 0.079-0.186l0-0c0.049-0.042 0.114-0.067 0.184-0.067s0.135 0.025 0.185 0.068l-0-0c0.049 0.047 0.079 0.113 0.079 0.186 0 0.008-0 0.016-0.001 0.023l0-0.001v1.438zM32.145 25.99v-2.721h-0.377l-0.495 1.44h-0.007l-0.499-1.44h-0.373v2.721h0.389v-1.655h0.007l0.381 1.17h0.194l0.384-1.17h0.007v1.655h0.389zM34.354 23.459c-0.060-0.067-0.136-0.118-0.22-0.149-0.079-0.027-0.171-0.042-0.266-0.042-0.006 0-0.011 0-0.017 0h-0.577v2.721h0.388v-1.063h0.2c0.121 0.006 0.241-0.020 0.35-0.074 0.089-0.050 0.161-0.121 0.212-0.206l0.001-0.003c0.045-0.072 0.075-0.153 0.089-0.237 0.015-0.102 0.022-0.205 0.021-0.309 0.004-0.13-0.009-0.261-0.038-0.389-0.027-0.098-0.077-0.182-0.143-0.25l0 0zM34.154 24.289c-0.002 0.052-0.015 0.101-0.037 0.144l0.001-0.002c-0.023 0.042-0.057 0.075-0.099 0.095l-0.001 0.001c-0.048 0.022-0.104 0.035-0.163 0.035-0.007 0-0.014-0-0.021-0.001l0.001 0h-0.177v-0.925h0.2c0.006-0 0.012-0 0.019-0 0.057 0 0.11 0.013 0.159 0.035l-0.002-0.001c0.040 0.023 0.071 0.058 0.090 0.099l0.001 0.001c0.021 0.047 0.033 0.099 0.034 0.151v0.181c0 0.063 0.004 0.129 0 0.187h-0.004zM36.191 23.268h-0.318l-0.6 2.721h0.388l0.114-0.585h0.529l0.114 0.585h0.388l-0.614-2.721zM35.833 25.034l0.191-0.986h0.007l0.19 0.986h-0.388zM38.696 24.908h-0.007l-0.585-1.64h-0.373v2.721h0.388v-1.636h0.008l0.593 1.636h0.365v-2.721h-0.388v1.639zM41.066 23.268l-0.312 1.082h-0.008l-0.312-1.082h-0.411l0.533 1.571v1.15h0.388v-1.15l0.533-1.571h-0.41z"></path>
</symbol>
<symbol id="icon-cliente-1" viewBox="0 0 67 32">
<path d="M27.654 8.331l2.769 2.621-5.139-0.003v12.716h13.432v-4.862l2.765 2.618v-13.090h-13.827zM38.594 18.495l-7.85-7.431h7.85v7.431zM36.157 21.805h-8.748v-8.553h0.618v7.973h8.13v0.579zM29.476 25.357l-0.323 0.666-0.323-0.666h-0.271l0.472 0.887v0.517h0.245v-0.517l0.471-0.887h-0.27zM29.882 26.762l0.114-0.327h0.544l0.115 0.327h0.255l-0.531-1.404h-0.219l-0.53 1.404h0.254zM30.267 25.656l0.203 0.582h-0.407l0.203-0.583zM31.554 26.204c-0.033 0.049-0.053 0.11-0.053 0.176 0 0.001 0 0.002 0 0.002v-0c0 0.119 0.041 0.215 0.124 0.288s0.195 0.11 0.333 0.11c0.139 0 0.259-0.038 0.359-0.113l0.079 0.094h0.272l-0.206-0.244c0.081-0.111 0.122-0.252 0.122-0.425h-0.204c0 0.095-0.020 0.181-0.058 0.258l-0.271-0.32 0.096-0.070c0.058-0.039 0.107-0.088 0.145-0.145l0.001-0.002c0.028-0.046 0.044-0.101 0.044-0.16 0-0.001 0-0.002 0-0.002v0c0-0.002 0-0.004 0-0.005 0-0.086-0.038-0.164-0.098-0.217l-0-0c-0.062-0.057-0.146-0.091-0.237-0.091-0.005 0-0.010 0-0.015 0l0.001-0c-0.113 0-0.203 0.032-0.27 0.096s-0.1 0.151-0.1 0.261c0 0.045 0.011 0.091 0.032 0.14 0.022 0.048 0.060 0.107 0.115 0.175-0.104 0.075-0.174 0.139-0.209 0.194zM32.188 26.515c-0.060 0.049-0.137 0.078-0.221 0.079h-0c-0.003 0-0.007 0-0.011 0-0.060 0-0.116-0.023-0.157-0.061l0 0c-0.039-0.038-0.063-0.091-0.063-0.15 0-0.003 0-0.006 0-0.008v0c0-0.075 0.039-0.142 0.116-0.201l0.030-0.021 0.307 0.362zM31.936 25.893c-0.066-0.082-0.1-0.149-0.1-0.203 0-0.047 0.014-0.086 0.041-0.117 0.025-0.029 0.062-0.047 0.103-0.047 0.002 0 0.004 0 0.006 0h-0c0.002-0 0.003-0 0.005-0 0.039 0 0.074 0.015 0.1 0.040l-0-0c0.028 0.026 0.041 0.057 0.041 0.094 0 0.001 0 0.003 0 0.005 0 0.052-0.023 0.099-0.059 0.131l-0 0-0.030 0.024-0.107 0.073zM34.222 26.656c0.096-0.084 0.152-0.201 0.166-0.351h-0.243c-0.013 0.1-0.043 0.172-0.092 0.215s-0.12 0.065-0.216 0.065c-0.105 0-0.184-0.040-0.239-0.12-0.054-0.080-0.081-0.196-0.081-0.348v-0.124c0.002-0.15 0.030-0.263 0.087-0.341s0.139-0.117 0.245-0.117c0.091 0 0.16 0.023 0.207 0.067s0.077 0.117 0.089 0.218h0.243c-0.016-0.154-0.070-0.273-0.165-0.357s-0.219-0.126-0.374-0.126c-0.115 0-0.217 0.028-0.305 0.082-0.088 0.056-0.157 0.136-0.2 0.23l-0.001 0.003c-0.045 0.098-0.071 0.213-0.071 0.334 0 0.006 0 0.012 0 0.017v-0.001 0.131c0.002 0.129 0.026 0.243 0.072 0.341s0.112 0.173 0.197 0.226c0.086 0.053 0.184 0.079 0.296 0.079 0.16 0 0.288-0.041 0.385-0.125zM35.656 26.459c0.047-0.104 0.072-0.225 0.072-0.363v-0.078c0-0.004 0-0.010 0-0.015 0-0.125-0.027-0.243-0.075-0.35l0.002 0.005c-0.045-0.099-0.115-0.18-0.203-0.236l-0.002-0.001c-0.089-0.055-0.19-0.083-0.304-0.083s-0.216 0.028-0.305 0.084c-0.088 0.055-0.156 0.135-0.205 0.24-0.046 0.102-0.072 0.22-0.072 0.345 0 0.006 0 0.012 0 0.018v-0.001 0.079c0.001 0.134 0.025 0.253 0.073 0.356s0.118 0.183 0.207 0.239c0.089 0.055 0.191 0.083 0.305 0.083 0.115 0 0.217-0.028 0.305-0.083s0.157-0.136 0.204-0.239zM35.395 25.665c0.059 0.083 0.089 0.203 0.089 0.358v0.073c0 0.158-0.029 0.279-0.088 0.361s-0.141 0.124-0.249 0.124c-0.003 0-0.007 0-0.010 0-0.099 0-0.187-0.050-0.24-0.126l-0.001-0.001c-0.060-0.084-0.090-0.203-0.090-0.358v-0.081c0.001-0.151 0.032-0.268 0.090-0.35 0.053-0.076 0.139-0.125 0.237-0.125 0.004 0 0.008 0 0.011 0l-0.001-0c0.108 0 0.191 0.041 0.25 0.124z"></path>
</symbol>
<symbol id="icon-elipse-3" viewBox="0 0 32 32">
<path d="M32 16c0 0.006 0 0.013 0 0.020 0 4.412-1.791 8.405-4.686 11.293l-0 0c-2.888 2.895-6.881 4.687-11.293 4.687-0.007 0-0.014 0-0.021 0h0.001c-0.006 0-0.013 0-0.020 0-4.412 0-8.405-1.791-11.293-4.686l-0-0c-2.895-2.888-4.687-6.881-4.687-11.293 0-0.007 0-0.014 0-0.021v0.001c0-0.006 0-0.013 0-0.020 0-4.412 1.791-8.405 4.686-11.293l0-0c2.888-2.895 6.881-4.687 11.293-4.687 0.007 0 0.014 0 0.021 0h-0.001c0.006 0 0.013 0 0.020 0 4.412 0 8.405 1.791 11.293 4.686l0 0c2.895 2.888 4.687 6.881 4.687 11.293 0 0.007 0 0.014 0 0.021v-0.001z"></path>
<path fill="currentcolor" style="fill: var(--color1, currentcolor)" d="M23.269 23.273h0.004v-5.335c0-2.609-0.562-4.62-3.613-4.62-1.466 0-2.451 0.804-2.852 1.567h-0.042v-1.324h-2.893v9.711h3.012v-4.808c0-1.266 0.24-2.491 1.808-2.491 1.545 0 1.567 1.445 1.567 2.572v4.728h3.009zM8.967 13.562h3.016v9.711h-3.016v-9.711zM10.474 8.727c-0.965 0-1.747 0.782-1.747 1.747v0c0 0.964 0.783 1.763 1.747 1.763s1.746-0.799 1.746-1.763c-0-0.964-0.782-1.746-1.746-1.747h-0z"></path>
</symbol>
<symbol id="icon-elipse-2" viewBox="0 0 32 32">
<path d="M32 16c0 0.006 0 0.013 0 0.020 0 4.412-1.791 8.405-4.686 11.293l-0 0c-2.888 2.895-6.881 4.687-11.293 4.687-0.007 0-0.014 0-0.021 0h0.001c-0.006 0-0.013 0-0.020 0-4.412 0-8.405-1.791-11.293-4.686l-0-0c-2.895-2.888-4.687-6.881-4.687-11.293 0-0.007 0-0.014 0-0.021v0.001c0-0.006 0-0.013 0-0.020 0-4.412 1.791-8.405 4.686-11.293l0-0c2.888-2.895 6.881-4.687 11.293-4.687 0.007 0 0.014 0 0.021 0h-0.001c0.006 0 0.013 0 0.020 0 4.412 0 8.405 1.791 11.293 4.686l0 0c2.895 2.888 4.687 6.881 4.687 11.293 0 0.007 0 0.014 0 0.021v-0.001z"></path>
<path fill="currentcolor" style="fill: var(--color1, currentcolor)" d="M18.422 11.142h1.329v-2.313c-0.56-0.065-1.21-0.102-1.867-0.102-0.024 0-0.047 0-0.071 0h0.004c-1.915 0-3.226 1.204-3.226 3.418v2.036h-2.113v2.585h2.113v6.505h2.591v-6.505h2.027l0.322-2.585h-2.35v-1.782c0-0.747 0.201-1.258 1.243-1.258z"></path>
</symbol>
<symbol id="icon-elipse-1" viewBox="0 0 32 32">
<path d="M32 16c0 0.006 0 0.013 0 0.020 0 4.412-1.791 8.405-4.686 11.293l-0 0c-2.888 2.895-6.881 4.687-11.293 4.687-0.007 0-0.014 0-0.021 0h0.001c-0.006 0-0.013 0-0.020 0-4.412 0-8.405-1.791-11.293-4.686l-0-0c-2.895-2.888-4.687-6.881-4.687-11.293 0-0.007 0-0.014 0-0.021v0.001c0-0.006 0-0.013 0-0.020 0-4.412 1.791-8.405 4.686-11.293l0-0c2.888-2.895 6.881-4.687 11.293-4.687 0.007 0 0.014 0 0.021 0h-0.001c0.006 0 0.013 0 0.020 0 4.412 0 8.405 1.791 11.293 4.686l0 0c2.895 2.888 4.687 6.881 4.687 11.293 0 0.007 0 0.014 0 0.021v-0.001z"></path>
<path fill="currentcolor" style="fill: var(--color1, currentcolor)" d="M23.273 11.49c-0.5 0.224-1.080 0.39-1.688 0.467l-0.031 0.003c0.618-0.371 1.083-0.945 1.306-1.627l0.006-0.021c-0.544 0.328-1.178 0.579-1.853 0.715l-0.038 0.006c-0.545-0.582-1.319-0.945-2.177-0.945-1.646 0-2.981 1.335-2.981 2.981 0 0.001 0 0.002 0 0.003v-0c0 0.236 0.020 0.464 0.070 0.68-2.479-0.121-4.673-1.309-6.147-3.119-0.256 0.432-0.407 0.952-0.407 1.508v0c0 1.033 0.531 1.948 1.324 2.478-0.496-0.014-0.958-0.148-1.362-0.375l0.015 0.008v0.033c0.001 1.439 1.017 2.64 2.37 2.927l0.020 0.003c-0.227 0.062-0.487 0.098-0.756 0.098-0.009 0-0.018-0-0.028-0h0.001c-0.014 0-0.030 0-0.047 0-0.183 0-0.362-0.019-0.534-0.054l0.017 0.003c0.386 1.181 1.483 2.049 2.786 2.078-1.006 0.793-2.292 1.271-3.69 1.271-0.003 0-0.005 0-0.008 0h0c-0.012 0-0.026 0-0.039 0-0.238 0-0.472-0.015-0.701-0.044l0.027 0.003c1.285 0.839 2.858 1.338 4.547 1.338 0.010 0 0.019-0 0.029-0h-0.002c5.487 0 8.487-4.545 8.487-8.486 0-0.131-0.004-0.259-0.011-0.385 0.59-0.425 1.087-0.938 1.481-1.526l0.014-0.021z"></path>
</symbol>
<symbol id="icon-elipse-0" viewBox="0 0 32 32">
<path d="M32 16c0 0.006 0 0.013 0 0.020 0 4.412-1.791 8.405-4.686 11.293l-0 0c-2.888 2.895-6.881 4.687-11.293 4.687-0.007 0-0.014 0-0.021 0h0.001c-0.006 0-0.013 0-0.020 0-4.412 0-8.405-1.791-11.293-4.686l-0-0c-2.895-2.888-4.687-6.881-4.687-11.293 0-0.007 0-0.014 0-0.021v0.001c0-0.006 0-0.013 0-0.020 0-4.412 1.791-8.405 4.686-11.293l0-0c2.888-2.895 6.881-4.687 11.293-4.687 0.007 0 0.014 0 0.021 0h-0.001c0.006 0 0.013 0 0.020 0 4.412 0 8.405 1.791 11.293 4.686l0 0c2.895 2.888 4.687 6.881 4.687 11.293 0 0.007 0 0.014 0 0.021v-0.001z"></path>
<path fill="currentcolor" style="fill: var(--color1, currentcolor)" d="M23.258 13.004c-0.033-0.773-0.159-1.304-0.337-1.764-0.193-0.505-0.479-0.936-0.841-1.29l-0.001-0.001c-0.354-0.36-0.784-0.645-1.263-0.83l-0.024-0.008c-0.463-0.179-0.991-0.304-1.764-0.337-0.778-0.037-1.025-0.046-3.001-0.046s-2.222 0.009-2.998 0.043c-0.773 0.033-1.304 0.159-1.764 0.338-0.505 0.193-0.936 0.479-1.29 0.84l-0.001 0.001c-0.36 0.354-0.645 0.784-0.83 1.263l-0.008 0.024c-0.18 0.463-0.304 0.991-0.338 1.764-0.037 0.778-0.046 1.025-0.046 3.001s0.009 2.222 0.043 2.998c0.034 0.773 0.159 1.304 0.338 1.764 0.194 0.505 0.48 0.935 0.84 1.29l0.001 0c0.364 0.369 0.804 0.656 1.287 0.838 0.463 0.18 0.992 0.305 1.764 0.338 0.776 0.034 1.023 0.043 2.998 0.043s2.222-0.009 2.998-0.043c0.773-0.033 1.304-0.159 1.764-0.337 0.981-0.386 1.742-1.148 2.12-2.104l0.009-0.025c0.179-0.463 0.304-0.992 0.338-1.764 0.034-0.776 0.042-1.023 0.042-2.998s-0.003-2.222-0.036-2.998zM21.949 18.943c-0.032 0.711-0.151 1.094-0.25 1.349-0.251 0.637-0.745 1.131-1.365 1.376l-0.016 0.006c-0.255 0.099-0.641 0.218-1.349 0.249-0.767 0.034-0.997 0.043-2.938 0.043s-2.174-0.009-2.938-0.043c-0.711-0.031-1.094-0.151-1.35-0.25-0.328-0.122-0.606-0.307-0.834-0.542l-0.001-0.001c-0.235-0.229-0.42-0.508-0.538-0.819l-0.005-0.016c-0.099-0.256-0.218-0.642-0.249-1.35-0.034-0.767-0.043-0.998-0.043-2.938s0.009-2.175 0.043-2.938c0.031-0.711 0.151-1.094 0.249-1.35 0.122-0.328 0.308-0.608 0.545-0.835l0.001-0.001c0.229-0.235 0.509-0.42 0.821-0.537l0.016-0.005c0.255-0.099 0.641-0.218 1.349-0.25 0.767-0.033 0.998-0.042 2.938-0.042 1.943 0 2.174 0.008 2.938 0.042 0.711 0.031 1.094 0.151 1.35 0.25 0.315 0.116 0.602 0.301 0.835 0.543 0.241 0.236 0.426 0.52 0.543 0.836 0.099 0.255 0.218 0.641 0.249 1.349 0.034 0.767 0.043 0.997 0.043 2.938s-0.009 2.167-0.043 2.935z"></path>
<path fill="currentcolor" style="fill: var(--color1, currentcolor)" d="M16.027 12.265c-0 0-0 0-0.001 0-2.064 0-3.737 1.673-3.737 3.737s1.673 3.737 3.737 3.737c2.064 0 3.737-1.673 3.737-3.737 0-0 0-0 0-0.001v0c-0-2.064-1.673-3.736-3.737-3.737h-0zM16.027 18.425c-1.339-0-2.424-1.085-2.424-2.424s1.085-2.424 2.424-2.424c0 0 0 0 0 0h-0c1.339 0 2.424 1.085 2.424 2.424s-1.085 2.424-2.424 2.424v0zM20.784 12.117c0 0.482-0.391 0.873-0.873 0.873s-0.873-0.391-0.873-0.873v0c0-0.482 0.391-0.873 0.873-0.873s0.873 0.391 0.873 0.873v0z"></path>
</symbol>
<symbol id="icon-telefono-1" viewBox="0 0 20 32">
<path d="M17 0h-14c-1.654 0-3 1.346-3 3v26c0 1.654 1.346 3 3 3h14c1.654 0 3-1.346 3-3v-26c0-1.654-1.346-3-3-3zM3 2h14c0.552 0 1 0.448 1 1v0 21h-16v-21c0-0.552 0.448-1 1-1v0zM17 30h-14c-0.552 0-1-0.448-1-1v0-3h16v3c0 0.552-0.448 1-1 1v0z"></path>
<path d="M4.708 27.478c0.18 0.163 0.293 0.399 0.293 0.66s-0.113 0.497-0.292 0.659l-0.001 0.001c-0.186 0.17-0.435 0.275-0.708 0.275s-0.522-0.104-0.709-0.275l0.001 0.001c-0.18-0.163-0.293-0.399-0.293-0.66s0.113-0.497 0.292-0.659l0.001-0.001c0.186-0.17 0.435-0.275 0.708-0.275s0.522 0.104 0.709 0.275l-0.001-0.001z"></path>
</symbol>
<symbol id="icon-sobre-1" viewBox="0 0 43 32">
<path d="M38.667 0h-34.667c-2.205 0-4 1.795-4 4v24c0 2.205 1.795 4 4 4h34.667c2.205 0 4-1.795 4-4v-24c0-2.205-1.795-4-4-4zM38.667 2.667c0.181 0 0.355 0.037 0.512 0.104l-17.845 15.467-17.845-15.467c0.151-0.065 0.327-0.104 0.512-0.104h34.667zM38.667 29.333h-34.667c-0.736 0-1.333-0.597-1.333-1.333v0-22.413l17.792 15.421c0.233 0.203 0.539 0.327 0.875 0.327s0.642-0.124 0.876-0.328l-0.002 0.001 17.792-15.421v22.413c0 0.736-0.597 1.333-1.333 1.333v0z"></path>
</symbol>
<symbol id="icon-astronauta-1" viewBox="0 0 32 32">
<path fill="#2196f3" style="fill: var(--color2, #2196f3)" d="M31.974 4.524c-0.063-0.193-0.229-0.333-0.43-0.363l-1.91-0.278-0.855-1.731c-0.179-0.365-0.777-0.365-0.956 0l-0.855 1.731-1.91 0.278c-0.201 0.029-0.367 0.17-0.431 0.363-0.062 0.193-0.011 0.405 0.135 0.547l1.383 1.348-0.326 1.903c-0.034 0.2 0.048 0.402 0.212 0.522 0.166 0.121 0.382 0.135 0.562 0.040l1.709-0.899 1.709 0.899c0.078 0.041 0.164 0.061 0.249 0.061 0.11 0 0.221-0.034 0.314-0.102 0.164-0.119 0.246-0.322 0.212-0.522l-0.326-1.903 1.383-1.348c0.145-0.142 0.197-0.354 0.135-0.547zM29.511 5.851c-0.125 0.122-0.183 0.299-0.153 0.472l0.191 1.114-1-0.526c-0.078-0.041-0.163-0.061-0.249-0.061s-0.17 0.020-0.249 0.061l-1.001 0.526 0.191-1.114c0.030-0.173-0.028-0.349-0.153-0.472l-0.81-0.789 1.119-0.163c0.174-0.025 0.324-0.134 0.402-0.292l0.5-1.013 0.5 1.013c0.078 0.157 0.228 0.267 0.402 0.292l1.119 0.163-0.809 0.789z"></path>
<path fill="#2196f3" style="fill: var(--color2, #2196f3)" d="M26.134 20.522h-1.067v1.067h1.067v-1.067z"></path>
<path fill="#2196f3" style="fill: var(--color2, #2196f3)" d="M26.134 22.656h-1.067v1.067h1.067v-1.067z"></path>
<path fill="#2196f3" style="fill: var(--color2, #2196f3)" d="M27.2 21.589h-1.067v1.067h1.067v-1.067z"></path>
<path fill="#2196f3" style="fill: var(--color2, #2196f3)" d="M25.067 21.589h-1.067v1.067h1.067v-1.067z"></path>
<path fill="#2196f3" style="fill: var(--color2, #2196f3)" d="M22.4 26.389h-1.067v1.067h1.067v-1.067z"></path>
<path fill="#2196f3" style="fill: var(--color2, #2196f3)" d="M22.4 28.522h-1.067v1.067h1.067v-1.067z"></path>
<path fill="#2196f3" style="fill: var(--color2, #2196f3)" d="M23.467 27.456h-1.067v1.067h1.067v-1.067z"></path>
<path fill="#2196f3" style="fill: var(--color2, #2196f3)" d="M21.333 27.456h-1.067v1.067h1.067v-1.067z"></path>
<path fill="#2196f3" style="fill: var(--color2, #2196f3)" d="M16 24.256h-1.067v1.067h1.067v-1.067z"></path>
<path fill="#2196f3" style="fill: var(--color2, #2196f3)" d="M16 26.389h-1.067v1.067h1.067v-1.067z"></path>
<path fill="#2196f3" style="fill: var(--color2, #2196f3)" d="M17.067 25.322h-1.067v1.067h1.067v-1.067z"></path>
<path fill="#2196f3" style="fill: var(--color2, #2196f3)" d="M14.933 25.322h-1.067v1.067h1.067v-1.067z"></path>
<path fill="#2196f3" style="fill: var(--color2, #2196f3)" d="M5.867 6.122h-1.067v1.067h1.067v-1.067z"></path>
<path fill="#2196f3" style="fill: var(--color2, #2196f3)" d="M5.867 8.255h-1.067v1.067h1.067v-1.067z"></path>
<path fill="#2196f3" style="fill: var(--color2, #2196f3)" d="M6.933 7.189h-1.067v1.067h1.067v-1.067z"></path>
<path fill="#2196f3" style="fill: var(--color2, #2196f3)" d="M4.8 7.189h-1.067v1.067h1.067v-1.067z"></path>
<path fill="#212121" style="fill: var(--color5, #212121)" d="M24.715 14.159c-0.287-0.388-0.709-0.637-1.188-0.705-0.481-0.068-0.956 0.058-1.34 0.352l-1.252 0.96-1.898 1.417-1.358-0.541c2.421-1.086 4.114-3.508 4.114-6.32 0-3.823-3.123-6.933-6.961-6.933s-6.961 3.11-6.961 6.933c0 1.386 0.414 2.674 1.12 3.758l-2.764-0.024c-0.002 0-0.003 0-0.005 0-0.009 0-0.015 0.004-0.023 0.005-0.053 0.002-0.105 0.013-0.155 0.031-0.013 0.005-0.026 0.008-0.038 0.013-0.006 0.003-0.013 0.003-0.019 0.006l-3.233 1.596c-0.001 0-0.001 0-0.001 0.001l-1.893 0.911c-0.021 0.009-0.042 0.021-0.063 0.035-0.755 0.502-1.012 1.489-0.598 2.295 0.22 0.429 0.595 0.745 1.056 0.889 0.178 0.055 0.359 0.083 0.539 0.083 0.29 0 0.577-0.071 0.839-0.211l1.388-0.738 2.264-1.169 1.357-0.008-5.442 5.416c-0.001 0.001-0.001 0.001-0.002 0.001l-1.339 1.333c-0.316 0.315-0.49 0.732-0.49 1.178s0.174 0.863 0.49 1.179c0.325 0.323 0.752 0.485 1.179 0.485s0.854-0.162 1.18-0.485l1.314-1.309 1.741-1.3 0.901 0.897-1.762 1.754c-0 0.001-0.001 0.001-0.002 0.001l-1.339 1.333c-0.316 0.315-0.49 0.732-0.49 1.178s0.174 0.863 0.49 1.179c0.325 0.323 0.753 0.485 1.18 0.485s0.855-0.162 1.18-0.485l3.482-3.467c0.001-0.001 0.001-0.001 0.001-0.002l1.010-1-0.004-0.004c0.006-0.006 0.015-0.009 0.022-0.015l5.166-5.658 3.471 0.494c0.025 0.004 0.050 0.005 0.075 0.005 0.065 0 0.127-0.015 0.187-0.038 0.018-0.006 0.033-0.015 0.050-0.023 0.019-0.010 0.039-0.015 0.058-0.027l3.213-2.133c0.012-0.008 0.018-0.021 0.029-0.029 0.013-0.010 0.029-0.014 0.041-0.026l1.271-1.191c0.662-0.62 0.753-1.635 0.212-2.362zM2.13 17.77c-0.173 0.093-0.37 0.111-0.558 0.052-0.187-0.058-0.338-0.186-0.427-0.358-0.161-0.314-0.068-0.695 0.214-0.902l1.314-0.632 0.449 1.312-0.992 0.528zM5.628 15.942l-1.548 0.8-0.439-1.283 2.027-1.001-0.040 1.484zM20.727 9.322c0 0.918-0.219 1.785-0.599 2.559l-4.181-1.899c-0.044-0.573-0.341-1.075-0.788-1.388l1.464-4.86c2.378 0.756 4.105 2.974 4.105 5.588zM8.938 9.322c0-3.235 2.644-5.867 5.894-5.867 0.253 0 0.5 0.021 0.745 0.052l-1.432 4.754c-0.019-0.001-0.037-0.006-0.057-0.006-1.033 0-1.873 0.837-1.873 1.867s0.84 1.867 1.873 1.867c0.694 0 1.294-0.383 1.618-0.945l3.862 1.755c-1.075 1.446-2.795 2.39-4.737 2.39-3.25 0-5.894-2.632-5.894-5.867zM14.894 10.122c0 0.441-0.362 0.8-0.806 0.8s-0.806-0.359-0.806-0.8c0-0.441 0.362-0.8 0.806-0.8s0.806 0.359 0.806 0.8zM2.465 25.146c-0.236 0.234-0.619 0.234-0.854 0.001-0.114-0.114-0.176-0.263-0.176-0.423s0.062-0.309 0.176-0.421l0.962-0.958 0.851 0.848-0.959 0.955zM5.679 28.88c-0.236 0.234-0.619 0.235-0.855 0.001-0.114-0.114-0.176-0.263-0.176-0.423s0.062-0.309 0.176-0.421l0.963-0.959 0.852 0.848-0.96 0.955zM9.16 25.411c-0.001 0-0.001 0-0.002 0.001l-1.765 1.76-0.852-0.848 1.763-1.755c0 0 0 0 0-0s0.001-0.001 0.002-0.001c0.040-0.040 0.065-0.088 0.090-0.135 0.007-0.014 0.020-0.026 0.026-0.040 0.017-0.041 0.019-0.085 0.026-0.129 0.003-0.025 0.014-0.047 0.014-0.073 0-0.036-0.013-0.070-0.020-0.106-0.006-0.032-0.006-0.065-0.019-0.095-0.020-0.050-0.055-0.094-0.091-0.138-0.010-0.012-0.014-0.027-0.025-0.038 0 0 0 0-0.001 0s-0.001-0.002-0.001-0.002l-1.607-1.6c-0.017-0.017-0.039-0.024-0.058-0.038-0.028-0.022-0.055-0.042-0.087-0.058-0.030-0.015-0.061-0.024-0.093-0.033-0.034-0.010-0.067-0.017-0.103-0.020-0.033-0.002-0.063 0.001-0.095 0.005-0.036 0.004-0.069 0.009-0.104 0.020-0.034 0.011-0.063 0.027-0.094 0.045-0.020 0.011-0.042 0.015-0.061 0.029l-1.773 1.324-0.901-0.897 2.399-2.386 4.361 4.289-0.928 0.919zM15.979 18.394c-0.015-0.002-0.030 0.004-0.045 0.003-0.039-0.002-0.076 0.001-0.115 0.007-0.030 0.005-0.059 0.011-0.088 0.021-0.034 0.012-0.065 0.028-0.097 0.047-0.030 0.018-0.057 0.037-0.083 0.061-0.013 0.011-0.028 0.017-0.040 0.029l-4.698 5.146-4.328-4.257 2.833-2.818c0.209-0.208 0.21-0.546 0.002-0.755-0.105-0.105-0.243-0.157-0.381-0.156v-0.001l-2.219 0.013 0.028-1.607 3.104 0.027c1.265 1.294 3.029 2.101 4.981 2.101 0.437 0 0.864-0.045 1.279-0.123 0.040 0.032 0.079 0.065 0.13 0.085l2.41 0.96 0.152 0.758 0.178 0.885-3.003-0.427zM20.020 18.572l-0.313-1.558 1.446-1.080 0.947 1.257-2.080 1.381zM23.774 15.741l-0.838 0.785-0.931-1.236 0.831-0.637c0.155-0.119 0.351-0.168 0.543-0.143 0.193 0.027 0.364 0.128 0.48 0.284 0.217 0.292 0.18 0.699-0.085 0.947z"></path>
<path fill="#212121" style="fill: var(--color5, #212121)" d="M13.602 18.544l-2.143-2.133c-0.207-0.207-0.545-0.207-0.753 0l-2.142 2.133c-0.1 0.101-0.157 0.236-0.157 0.378s0.056 0.278 0.157 0.378l2.142 2.133c0.104 0.103 0.241 0.155 0.377 0.155s0.273-0.052 0.376-0.155l2.143-2.133c0.1-0.1 0.157-0.236 0.157-0.378s-0.057-0.278-0.157-0.378zM11.083 20.303l-1.387-1.381 1.387-1.381 1.387 1.381-1.387 1.381z"></path>
<path fill="#212121" style="fill: var(--color5, #212121)" d="M17.164 5.071l-0.258 1.036c0.071 0.018 1.738 0.452 1.738 2.149h1.067c-0-2.017-1.666-2.965-2.547-3.185z"></path>
<path fill="#212121" style="fill: var(--color5, #212121)" d="M19.711 9.322h-1.067v1.067h1.067v-1.067z"></path>
</symbol>
<symbol id="icon-diagrama-1" viewBox="0 0 32 32">
<path fill="#2196f3" style="fill: var(--color2, #2196f3)" d="M14.926 14.965h1.066v4.798h-1.066v-4.797z"></path>
<path fill="#2196f3" style="fill: var(--color2, #2196f3)" d="M19.19 17.097h1.066v2.665h-1.066v-2.665z"></path>
<path fill="#2196f3" style="fill: var(--color2, #2196f3)" d="M10.661 18.696h1.066v1.066h-1.066v-1.066z"></path>
<path fill="#2196f3" style="fill: var(--color2, #2196f3)" d="M7.463 18.163h1.066v1.599h-1.066v-1.599z"></path>
<path fill="#212121" style="fill: var(--color5, #212121)" d="M1.599 28.291h25.587c0.883 0 1.599-0.716 1.599-1.599v-2.132c0-0.883-0.716-1.599-1.599-1.599h-0.533v-13.293l3.028-2.868c0.703 0.346 1.553 0.136 2.013-0.499s0.396-1.508-0.152-2.068-1.42-0.644-2.065-0.198c-0.644 0.446-0.873 1.292-0.542 2.002l-2.281 2.163v-1.23c0-0.883-0.716-1.599-1.599-1.599h-21.322c-0.883 0-1.599 0.716-1.599 1.599v15.992h-0.533c-0.883 0-1.599 0.716-1.599 1.599v2.132c0 0.883 0.716 1.599 1.599 1.599zM30.384 4.837c0.294 0 0.533 0.239 0.533 0.533s-0.239 0.533-0.533 0.533c-0.294 0-0.533-0.239-0.533-0.533s0.239-0.533 0.533-0.533zM3.198 6.969c0-0.294 0.239-0.533 0.533-0.533h21.322c0.294 0 0.533 0.239 0.533 0.533v2.239l-1.066 1.013v-2.186c0-0.294-0.239-0.533-0.533-0.533h-19.19c-0.294 0-0.533 0.239-0.533 0.533v13.326c0 0.294 0.239 0.533 0.533 0.533h19.19c0.294 0 0.533-0.239 0.533-0.533v-9.674l1.066-1.010v12.284h-22.388v-15.992zM7.996 13.899c-0.721-0.002-1.354 0.478-1.546 1.174s0.105 1.433 0.725 1.801c0.62 0.368 1.41 0.276 1.928-0.226l1.853 0.93c0.215 0.108 0.476 0.057 0.636-0.123l3.939-4.431 3.872 2.901c0.208 0.156 0.498 0.139 0.686-0.039l3.365-3.188v8.131h-18.124v-12.26h18.124v2.66l-3.771 3.572-3.904-2.927c-0.222-0.166-0.534-0.135-0.718 0.072l-3.993 4.493-1.493-0.746c0.011-0.064 0.018-0.129 0.020-0.193 0-0.883-0.716-1.599-1.599-1.599zM8.529 15.498c0 0.294-0.239 0.533-0.533 0.533s-0.533-0.239-0.533-0.533c0-0.294 0.239-0.533 0.533-0.533s0.533 0.239 0.533 0.533zM11.727 24.027h5.331v0.533c0 0.294-0.239 0.533-0.533 0.533h-4.264c-0.294 0-0.533-0.239-0.533-0.533v-0.533zM1.066 24.56c0-0.294 0.239-0.533 0.533-0.533h9.062v0.533c0 0.883 0.716 1.599 1.599 1.599h4.264c0.883 0 1.599-0.716 1.599-1.599v-0.533h9.062c0.294 0 0.533 0.239 0.533 0.533v2.132c0 0.294-0.239 0.533-0.533 0.533h-25.587c-0.294 0-0.533-0.239-0.533-0.533v-2.132z"></path>
</symbol>
<symbol id="icon-reloj-1" viewBox="0 0 31 32">
<path fill="#212121" style="fill: var(--color5, #212121)" d="M29.317 13.732c-0.002-7.585-6.152-13.733-13.738-13.732s-13.733 6.152-13.732 13.738c0.001 5.975 3.865 11.264 9.557 13.081 0.054 0.017 0.111 0.026 0.168 0.026 0.108-0 0.214-0.029 0.307-0.084 0.121-0.072 0.212-0.186 0.254-0.32l3.469-10.994c0.948-0.005 1.713-0.778 1.708-1.726s-0.777-1.713-1.726-1.708c-0.255 0.001-0.507 0.060-0.736 0.172l-4.582-4.583c-0.227-0.22-0.59-0.213-0.809 0.014-0.214 0.222-0.214 0.573 0 0.795l4.58 4.585c-0.351 0.717-0.151 1.583 0.481 2.072l-3.305 10.476c-6.531-2.406-9.876-9.651-7.47-16.182s9.651-9.876 16.182-7.47 9.876 9.651 7.47 16.182c-1.175 3.191-3.591 5.772-6.697 7.156l-0.357-1.682c-0.065-0.309-0.369-0.507-0.678-0.441-0.098 0.021-0.188 0.067-0.262 0.133l-3.443 3.074c-0.236 0.21-0.257 0.572-0.047 0.808 0.068 0.077 0.156 0.134 0.254 0.165l4.396 1.403c0.301 0.097 0.623-0.069 0.72-0.37 0.031-0.095 0.036-0.196 0.015-0.294l-0.351-1.65c5.083-2.143 8.384-7.128 8.372-12.644zM15.583 13.16c0.316 0 0.572 0.256 0.572 0.572s-0.256 0.572-0.572 0.572c-0.316 0-0.572-0.256-0.572-0.572s0.256-0.572 0.572-0.572zM17.468 26.499l1.96-1.748 0.541 2.549-2.501-0.801z"></path>
<path fill="#2196f3" style="fill: var(--color2, #2196f3)" d="M15.010 2.858v1.145c0 0.316 0.256 0.572 0.572 0.572s0.572-0.256 0.572-0.572v-1.145c0-0.316-0.256-0.572-0.572-0.572s-0.572 0.256-0.572 0.572z"></path>
<path fill="#2196f3" style="fill: var(--color2, #2196f3)" d="M4.709 13.16c-0.316 0-0.572 0.256-0.572 0.572s0.256 0.572 0.572 0.572h1.145c0.316 0 0.572-0.256 0.572-0.572s-0.256-0.572-0.572-0.572h-1.145z"></path>
<path fill="#2196f3" style="fill: var(--color2, #2196f3)" d="M26.456 14.304c0.316 0 0.572-0.256 0.572-0.572s-0.256-0.572-0.572-0.572h-1.145c-0.316 0-0.572 0.256-0.572 0.572s0.256 0.572 0.572 0.572h1.145z"></path>
</symbol>
<symbol id="icon-antena-1" viewBox="0 0 32 32">
<path fill="#212121" style="fill: var(--color5, #212121)" d="M30.773 22.098l-8.443-8.505 0.937-4.615c0.242 0.094 0.499 0.144 0.758 0.146h0.006c1.192 0.014 2.17-0.941 2.184-2.133s-0.941-2.17-2.133-2.184c-1.192-0.014-2.17 0.941-2.184 2.133-0.003 0.255 0.039 0.509 0.125 0.749l-4.96 0.605-8.091-8.133c-0.099-0.101-0.235-0.159-0.377-0.16-0.14 0.001-0.274 0.056-0.373 0.155l-1.513 1.504c-0.208 0.208-0.208 0.546 0 0.754l0.814 0.826c-3.153 5.798-2.129 12.978 2.519 17.663 0.043 0.041 0.092 0.074 0.146 0.098-0.034 0.18-0.051 0.364-0.052 0.547v6.187h-6.4c-1.472 0.002-2.665 1.195-2.667 2.667v1.067c0 0.295 0.239 0.533 0.533 0.533h24.533c0.295 0 0.533-0.239 0.533-0.533v-1.067c-0.002-1.472-1.195-2.665-2.667-2.667h-6.4v-2.742c1.003 0.21 2.024 0.317 3.049 0.32 2.458-0.003 4.877-0.615 7.040-1.783l0.818 0.823c0.099 0.101 0.235 0.159 0.377 0.16 0.14-0.001 0.274-0.056 0.373-0.155l1.513-1.504c0.208-0.208 0.208-0.546 0-0.754zM23.28 6.233c0.418-0.415 1.093-0.414 1.508 0.004s0.414 1.093-0.004 1.508c-0.2 0.199-0.47 0.31-0.752 0.31h-0.003c-0.589-0.003-1.064-0.483-1.061-1.072 0.002-0.282 0.115-0.552 0.314-0.751h-0.002zM22.024 9.738l-0.598 2.946-1.175-1.182 1.774-1.763zM21.419 8.836l-1.92 1.909-1.485-1.493 3.405-0.415zM24.004 28.8c0.884 0 1.6 0.716 1.6 1.6v0.533h-23.467v-0.533c0-0.884 0.716-1.6 1.6-1.6h20.267zM16.537 26.667v1.067h-5.333v-1.067h5.333zM11.204 25.6v-4.053c0-1.294 1.196-2.347 2.667-2.347s2.667 1.053 2.667 2.347v4.053h-5.333zM17.604 23.904v-2.357c0-1.882-1.675-3.413-3.733-3.413-1.331-0.020-2.576 0.657-3.281 1.786-4.058-4.274-4.971-10.645-2.279-15.887l18.602 18.708c-2.872 1.461-6.165 1.873-9.309 1.163zM28.893 23.22l-21.057-21.181 0.755-0.752 7.935 7.98c0.004 0 0.006 0.007 0.010 0.010l13.115 13.191-0.757 0.752z"></path>
<path fill="#2196f3" style="fill: var(--color2, #2196f3)" d="M13.876 20.267h-0.005c-0.884-0.001-1.601 0.714-1.602 1.598s0.714 1.601 1.598 1.602h0.005c0.884 0.001 1.601-0.714 1.602-1.598s-0.714-1.601-1.598-1.602zM14.249 22.245c-0.1 0.1-0.236 0.156-0.378 0.155-0.295-0.002-0.532-0.242-0.531-0.536 0.001-0.141 0.057-0.276 0.157-0.375s0.233-0.154 0.373-0.155c0.295 0.002 0.532 0.241 0.53 0.536-0.001 0.141-0.057 0.276-0.157 0.375h0.005z"></path>
</symbol>
<svg aria-hidden="true" style="position: absolute; width: 0; height: 0; overflow: hidden;" version="1.1" xmlns="http://www.w3.org/2000/svg" xmlns:xlink="http://www.w3.org/1999/xlink">
<defs>
<symbol id="icon-correo-electrnico-1" viewBox="0 0 32 32">
<path d="M26.667 5.333h-21.333c-1.467 0-2.652 1.2-2.652 2.667l-0.014 16c0 1.467 1.2 2.667 2.667 2.667h21.333c1.467 0 2.667-1.2 2.667-2.667v-16c0-1.467-1.2-2.667-2.667-2.667zM26.133 11.001l-9.426 5.892c-0.201 0.126-0.446 0.2-0.708 0.2s-0.506-0.075-0.713-0.204l0.006 0.003-9.426-5.892c-0.336-0.201-0.557-0.562-0.557-0.975 0-0.625 0.507-1.132 1.132-1.132 0.233 0 0.449 0.070 0.629 0.19l-0.004-0.003 8.933 5.586 8.933-5.588c0.176-0.118 0.392-0.188 0.624-0.188 0.625 0 1.132 0.507 1.132 1.132 0 0.413-0.221 0.775-0.552 0.972l-0.005 0.003z"></path>
</symbol>
<symbol id="icon-telfono-negro-1" viewBox="0 0 32 32">
<path d="M24.882 19.774l-3.268-0.373c-0.090-0.011-0.194-0.018-0.3-0.018-0.707 0-1.347 0.287-1.81 0.75l-2.368 2.368c-3.669-1.894-6.585-4.81-8.427-8.372l-0.051-0.108 2.382-2.377c0.463-0.463 0.75-1.103 0.75-1.81 0-0.106-0.006-0.21-0.019-0.312l0.001 0.012-0.373-3.243c-0.155-1.287-1.24-2.276-2.557-2.276-0.001 0-0.002 0-0.003 0h-2.226c-1.454 0-2.663 1.209-2.574 2.661 0.683 10.987 9.47 19.762 20.444 20.444 1.452 0.089 2.663-1.12 2.663-2.574v-2.226c0-0.004 0-0.008 0-0.012 0-1.308-0.985-2.386-2.253-2.532l-0.012-0.001z"></path>
</symbol>
<symbol id="icon-persona-negra-1" viewBox="0 0 32 32">
<path d="M16 16c2.946 0 5.333-2.388 5.333-5.333s-2.388-5.333-5.333-5.333v0c-2.946 0-5.333 2.388-5.333 5.333s2.388 5.333 5.333 5.333v0zM16 18.667c-3.561 0-10.667 1.787-10.667 5.333v1.333c0 0.732 0.599 1.333 1.333 1.333h18.667c0.732 0 1.333-0.601 1.333-1.333v-1.333c0-3.547-7.108-5.333-10.667-5.333z"></path>
</symbol>
<symbol id="icon-cerrar-1" viewBox="0 0 32 32">
<path fill="#fff" style="fill: var(--color1, #fff)" d="M28.632 12.632c0 6.976-5.655 12.632-12.632 12.632s-12.632-5.655-12.632-12.632c0-6.976 5.655-12.632 12.632-12.632s12.632 5.655 12.632 12.632z"></path>
<path fill="none" stroke="#000" style="stroke: var(--color2, currentcolor)" stroke-linejoin="miter" stroke-linecap="butt" stroke-miterlimit="4" stroke-width="0.8421" d="M28.211 12.632c0 6.744-5.467 12.211-12.211 12.211s-12.211-5.467-12.211-12.211c0-6.744 5.467-12.211 12.211-12.211s12.211 5.467 12.211 12.211z"></path>
<path d="M21.053 8.512l-0.933-0.933-3.699 3.699-3.699-3.699-0.933 0.933 3.699 3.699-3.699 3.699 0.933 0.933 3.699-3.699 3.699 3.699 0.933-0.933-3.699-3.699 3.699-3.699z"></path>
</symbol>
</defs>
</svg>
</defs>
</svg>
